<!-- Generated by IcoMoon.io -->
<svg version="1.1" xmlns="http://www.w3.org/2000/svg" width="133" height="32" viewBox="0 0 133 32">
<title>brand-logo</title>
<path d="M21.276 8.13h-8.683c-1.026-0.354-2.209-0.559-3.44-0.559-0.007 0-0.014 0-0.021 0h0.001c-0.097-0.003-0.21-0.005-0.324-0.005-2.366 0-4.532 0.852-6.21 2.266l0.014-0.012c-1.598 1.279-2.613 3.229-2.613 5.416 0 0.007 0 0.015 0 0.022v-0.001c-0 0.024-0.001 0.052-0.001 0.080 0 2.484 1.385 4.644 3.425 5.75l0.034 0.017-3.425 8.13 3.326 2.11c2.258-1.481 5.009-2.387 7.968-2.456l0.018-0c0.060-0.003 0.131-0.005 0.202-0.005 0.809 0 1.56 0.248 2.181 0.671l-0.013-0.009c0.664 0.617 1.089 1.484 1.124 2.45l0 0.006 5.708-0.692q-0.519-7.023-6.884-7.023c-2.976 0.042-5.719 1.008-7.964 2.623l0.041-0.028 2.698-4.29c0.215 0.023 0.465 0.035 0.718 0.035 0.039 0 0.079-0 0.118-0.001l-0.006 0c0.115 0.005 0.249 0.008 0.385 0.008 2.275 0 4.37-0.771 6.038-2.065l-0.022 0.017c1.541-1.146 2.528-2.962 2.528-5.008 0-0.003 0-0.006 0-0.009v0c0-0.017 0-0.038 0-0.058 0-1.145-0.363-2.205-0.98-3.071l0.011 0.016 4.048 0.277zM9.237 18.785c-0.023 0-0.050 0.001-0.077 0.001-1.048 0-2.005-0.394-2.729-1.042l0.004 0.003c-0.724-0.632-1.178-1.557-1.178-2.587 0-0.039 0.001-0.078 0.002-0.117l-0 0.006c-0.002-0.042-0.003-0.092-0.003-0.142 0-0.972 0.421-1.846 1.090-2.45l0.003-0.003c0.682-0.602 1.583-0.97 2.571-0.97 0.039 0 0.078 0.001 0.116 0.002l-0.006-0c0.027-0.001 0.059-0.001 0.091-0.001 1.033 0 1.974 0.395 2.68 1.042l-0.003-0.003c0.704 0.646 1.144 1.57 1.144 2.596 0 0.048-0.001 0.096-0.003 0.143l0-0.007c0.002 0.045 0.004 0.099 0.004 0.152 0 0.96-0.414 1.824-1.073 2.423l-0.003 0.002c-0.669 0.592-1.555 0.953-2.524 0.953-0.037 0-0.074-0.001-0.11-0.002l0.005 0zM34.041 8.649v10.136c-0.847 1.121-2.171 1.843-3.664 1.863l-0.003 0q-2.906 0-2.906-4.29v-8.822l-5.466 1.107v9.41c-0.011 0.149-0.017 0.322-0.017 0.497 0 1.84 0.667 3.524 1.772 4.824l-0.009-0.011c1.077 1.146 2.602 1.859 4.294 1.859 0.066 0 0.131-0.001 0.196-0.003l-0.009 0c0.062 0.002 0.135 0.003 0.208 0.003 2.318 0 4.397-1.029 5.803-2.654l0.008-0.010v2.177h5.258v-17.194zM54.348 1.418v6.435c-0.908-0.203-1.956-0.328-3.031-0.346l-0.013-0c-0.087-0.003-0.19-0.004-0.294-0.004-2.619 0-4.998 1.030-6.754 2.706l0.004-0.004c-1.742 1.67-2.825 4.015-2.825 6.614 0 0.107 0.002 0.214 0.005 0.321l-0-0.015c-0.005 0.108-0.008 0.234-0.008 0.361 0 2.129 0.797 4.071 2.108 5.546l-0.007-0.008c1.257 1.395 3.069 2.268 5.086 2.268 0.058 0 0.116-0.001 0.173-0.002l-0.009 0c0.055 0.002 0.12 0.002 0.186 0.002 2.266 0 4.283-1.064 5.58-2.72l0.012-0.015v2.179h5.253v-24.424zM51.165 20.895c-0.041 0.002-0.089 0.003-0.137 0.003-1.121 0-2.125-0.503-2.799-1.295l-0.004-0.005c-0.694-0.873-1.114-1.991-1.114-3.208 0-0.095 0.003-0.189 0.008-0.282l-0.001 0.013c-0.008-0.098-0.012-0.212-0.012-0.327 0-1.165 0.452-2.225 1.191-3.014l-0.002 0.002c0.738-0.698 1.737-1.127 2.836-1.127 0.049 0 0.098 0.001 0.146 0.003l-0.007-0c0.020-0 0.045-0 0.069-0 1.111 0 2.15 0.309 3.036 0.845l-0.026-0.015v6.884c-0.714 0.93-1.827 1.524-3.078 1.524-0.037 0-0.074-0.001-0.11-0.002l0.005 0zM71.369 4.255c1.571 0.013 3.067 0.316 4.443 0.859l-0.084-0.029v-4.29c-1.501-0.507-3.229-0.799-5.025-0.799-0.046 0-0.091 0-0.137 0.001l0.007-0q-7.611 0-7.611 7.507v17.231h5.466v-12.385h5.847v-4.221h-5.847v-0.825c-0.007-0.081-0.011-0.174-0.011-0.269 0-0.77 0.265-1.478 0.708-2.038l-0.005 0.007c0.521-0.472 1.216-0.762 1.978-0.762 0.095 0 0.189 0.005 0.282 0.013l-0.012-0.001zM83.408 25.427c0.093 0.003 0.202 0.005 0.312 0.005 2.62 0 5.004-1.008 6.786-2.657l-0.007 0.006c1.747-1.588 2.839-3.87 2.839-6.407 0-0.065-0.001-0.129-0.002-0.193l0 0.010c0.001-0.047 0.002-0.103 0.002-0.159 0-2.42-1.061-4.593-2.743-6.078l-0.009-0.008c-1.729-1.559-4.031-2.513-6.555-2.513-0.11 0-0.219 0.002-0.328 0.005l0.016-0c-0.093-0.003-0.202-0.005-0.312-0.005-2.62 0-5.004 1.008-6.786 2.657l0.007-0.006c-1.747 1.594-2.839 3.88-2.839 6.422 0 0.071 0.001 0.143 0.003 0.214l-0-0.011c-0.001 0.049-0.002 0.107-0.002 0.165 0 2.413 1.061 4.578 2.743 6.054l0.009 0.008c1.732 1.549 4.031 2.496 6.551 2.496 0.111 0 0.222-0.002 0.332-0.005l-0.016 0zM83.719 21.345c-0.053 0.003-0.115 0.004-0.178 0.004-1.195 0-2.266-0.537-2.983-1.382l-0.005-0.006c-0.728-0.94-1.167-2.136-1.167-3.434 0-0.108 0.003-0.216 0.009-0.322l-0.001 0.015c-0.005-0.086-0.008-0.186-0.008-0.287 0-1.194 0.407-2.293 1.089-3.166l-0.009 0.011c0.674-0.778 1.663-1.267 2.766-1.267 0.061 0 0.122 0.002 0.183 0.005l-0.009-0c0.051-0.002 0.112-0.004 0.172-0.004 1.198 0 2.27 0.539 2.987 1.387l0.005 0.006c0.729 0.947 1.168 2.149 1.168 3.454 0 0.112-0.003 0.222-0.010 0.332l0.001-0.015c0.005 0.081 0.007 0.175 0.007 0.271 0 1.187-0.406 2.278-1.087 3.144l0.008-0.011c-0.674 0.78-1.664 1.271-2.77 1.271-0.060 0-0.12-0.001-0.179-0.004l0.008 0zM103.611 25.427c0.093 0.003 0.202 0.005 0.312 0.005 2.62 0 5.004-1.008 6.786-2.657l-0.007 0.006c1.747-1.588 2.839-3.87 2.839-6.407 0-0.065-0.001-0.129-0.002-0.193l0 0.010c0.001-0.047 0.002-0.102 0.002-0.158 0-2.421-1.061-4.594-2.744-6.079l-0.009-0.008c-1.729-1.559-4.031-2.513-6.555-2.513-0.109 0-0.218 0.002-0.326 0.005l0.016-0c-0.093-0.003-0.202-0.005-0.312-0.005-2.62 0-5.004 1.008-6.786 2.657l0.007-0.006c-1.747 1.594-2.839 3.88-2.839 6.422 0 0.071 0.001 0.143 0.003 0.214l-0-0.011c-0.001 0.049-0.002 0.107-0.002 0.165 0 2.413 1.061 4.578 2.743 6.054l0.009 0.008c1.732 1.549 4.031 2.496 6.551 2.496 0.111 0 0.222-0.002 0.332-0.005l-0.016 0zM103.922 21.345c-0.053 0.003-0.115 0.004-0.178 0.004-1.195 0-2.266-0.537-2.983-1.382l-0.005-0.006c-0.728-0.94-1.167-2.136-1.167-3.434 0-0.108 0.003-0.216 0.009-0.322l-0.001 0.015c-0.005-0.082-0.007-0.179-0.007-0.276 0-1.197 0.408-2.298 1.094-3.172l-0.008 0.011c0.674-0.778 1.663-1.267 2.766-1.267 0.061 0 0.122 0.002 0.183 0.005l-0.009-0c0.053-0.003 0.115-0.004 0.178-0.004 1.195 0 2.266 0.537 2.983 1.382l0.005 0.006c0.729 0.947 1.168 2.149 1.168 3.454 0 0.112-0.003 0.222-0.010 0.332l0.001-0.015c0.004 0.078 0.007 0.17 0.007 0.263 0 1.19-0.408 2.285-1.093 3.152l0.008-0.011c-0.674 0.78-1.664 1.271-2.77 1.271-0.060 0-0.12-0.001-0.179-0.004l0.008 0zM127.135 1.418v6.435c-0.908-0.203-1.956-0.328-3.031-0.346l-0.013-0c-0.086-0.003-0.188-0.004-0.29-0.004-2.619 0-4.998 1.030-6.754 2.706l0.004-0.004c-1.742 1.67-2.825 4.015-2.825 6.614 0 0.107 0.002 0.214 0.005 0.321l-0-0.015c-0.005 0.108-0.008 0.234-0.008 0.361 0 2.129 0.797 4.071 2.108 5.546l-0.007-0.008c1.257 1.395 3.069 2.268 5.086 2.268 0.055 0 0.109-0.001 0.164-0.002l-0.008 0c0.055 0.002 0.12 0.002 0.186 0.002 2.266 0 4.283-1.064 5.58-2.72l0.012-0.015v2.179h5.258v-24.424zM123.952 20.895c-0.041 0.002-0.089 0.003-0.137 0.003-1.121 0-2.125-0.503-2.799-1.295l-0.004-0.005c-0.694-0.873-1.114-1.991-1.114-3.208 0-0.095 0.003-0.189 0.008-0.282l-0.001 0.013c-0.008-0.098-0.012-0.212-0.012-0.327 0-1.165 0.452-2.225 1.191-3.014l-0.002 0.002c0.738-0.698 1.737-1.127 2.836-1.127 0.049 0 0.098 0.001 0.146 0.003l-0.007-0c0.020-0 0.045-0 0.069-0 1.111 0 2.15 0.309 3.036 0.845l-0.026-0.015v6.884c-0.714 0.93-1.827 1.524-3.078 1.524-0.037 0-0.074-0.001-0.11-0.002l0.005 0z"></path>
</svg>
