<!-- Generated by IcoMoon.io -->
<svg version="1.1" xmlns="http://www.w3.org/2000/svg" width="50" height="32" viewBox="0 0 50 32">
<title>dishes-bg</title>
<path fill="#ffd800" d="M-1.481-6.938h71.211v40.068h-71.211v-40.068z"></path>
<path fill="#ffe200" d="M54.956 33.13c4.944-5.155 7.988-12.165 7.988-19.886 0-0.012 0-0.024-0-0.036v0.002c0-7.841-3.13-14.951-8.208-20.148h8.761c3.804 5.48 6.118 12.245 6.232 19.545l0 0.028v1.149c-0.113 7.232-2.368 13.915-6.157 19.469l0.079-0.123zM21.81 33.13c-1.512-0.945-2.825-1.98-4.015-3.141l0.005 0.005q-0.115-0.112-0.228-0.225c-2.083-2.079-3.774-4.549-4.956-7.29l-0.058-0.152c-0.631-1.443-1.147-3.129-1.466-4.884l-0.021-0.142c-0.226-1.226-0.356-2.636-0.356-4.076 0-0.005 0-0.011 0-0.016v0.001c0-0.006 0-0.014 0-0.021 0-6.41 2.58-12.217 6.758-16.439l-0.002 0.002q0.050-0.051 0.1-0.101c1.349-1.352 2.862-2.539 4.507-3.529l0.105-0.059h23.883c5.737 3.447 9.828 9.136 11.076 15.825l0.022 0.145c0.001 0.007 0.002 0.013 0.004 0.020 0 0.001 0 0.001 0 0.002 0.234 1.245 0.367 2.677 0.367 4.141 0 0.005 0 0.011 0 0.016v-0.001c-0.004 8.372-4.394 15.717-10.997 19.863l-0.098 0.057zM18.031 13.21c0 0.001 0 0.001 0 0.002 0 8.89 7.206 16.096 16.095 16.098h0c8.889 0 16.095-7.208 16.095-16.1 0-8.509-6.6-15.477-14.959-16.060q-0.403-0.028-0.812-0.036h-0.004l-0.016-0h-0.005l-0.027-0.001h-0.007l-0.013-0h-0.009l-0.019-0-0.013-0h-0.033l-0.020-0h-0.032c-0.007 0-0.014 0-0.021 0h-0.106c-8.889-0.002-16.095 7.207-16.095 16.098zM4.601 33.13c-3.815-5.587-6.091-12.488-6.091-19.92 0-7.529 2.336-14.513 6.323-20.266l-0.077 0.118h8.761c-5.075 5.179-8.208 12.28-8.208 20.112 0 0.013 0 0.025 0 0.038v-0.002c0 7.727 3.040 14.745 7.988 19.921zM34.126 24.668q-0.23 0-0.458-0.009c-1.457-0.057-2.825-0.38-4.075-0.922l0.073 0.028q-0.296-0.125-0.583-0.266-0.058-0.029-0.116-0.058c-0.018-0.009-0.035-0.018-0.053-0.027l-0.032-0.016c-1.097-0.572-2.039-1.267-2.856-2.087l-0-0c-1.684-1.683-2.846-3.889-3.224-6.352l-0.008-0.064c-0.078-0.505-0.123-1.087-0.123-1.68 0-0.002 0-0.004 0-0.007v0c0-0.002 0-0.005 0-0.007 0-6.324 5.127-11.451 11.451-11.451 0.001 0 0.002 0 0.004 0h-0q0.243 0 0.484 0.010h0.003l0.044 0.002c2.6 0.123 4.952 1.096 6.805 2.645l-0.017-0.014 0.016 0.014q0.396 0.331 0.764 0.699c0.339 0.34 0.658 0.7 0.953 1.080l0.019 0.026c0.571 0.733 1.067 1.568 1.451 2.462l0.028 0.074q0.137 0.323 0.253 0.652c0.411 1.129 0.649 2.432 0.649 3.79 0 0.006 0 0.013-0 0.019v-0.001c-0 4.692-2.82 8.726-6.857 10.499l-0.074 0.029q-0.032 0.014-0.064 0.027c-1.31 0.571-2.836 0.903-4.439 0.903-0.007 0-0.014 0-0.021-0h0.001zM26.81 13.21c0 0.002 0 0.005 0 0.007 0 4.038 3.273 7.311 7.311 7.311 0.002 0 0.004 0 0.005 0h-0c4.041 0 7.316-3.276 7.316-7.318 0-0.003 0-0.007 0-0.010 0-2.013-0.815-3.836-2.134-5.156l-0.009-0.009-0.017-0.017c-1.319-1.314-3.138-2.126-5.146-2.126-0.003 0-0.007 0-0.010 0h0.001c-4.041 0-7.316 3.276-7.316 7.318zM34.126 17.127c-2.163-0.002-3.915-1.755-3.916-3.918v-0c0-2.163 1.753-3.916 3.916-3.916s3.916 1.753 3.916 3.916v0c-0.002 2.162-1.754 3.915-3.916 3.918h-0zM32.663 13.21c0 0.808 0.655 1.463 1.463 1.463s1.463-0.655 1.463-1.463-0.655-1.463-1.463-1.463c0 0-0 0-0 0v0c-0.808 0-1.463 0.655-1.463 1.463 0 0 0 0 0 0v0z"></path>
</svg>
