<svg aria-hidden="true" style="position: absolute; width: 0; height: 0; overflow: hidden;" version="1.1" xmlns="http://www.w3.org/2000/svg" xmlns:xlink="http://www.w3.org/1999/xlink">
<defs>
<symbol id="brand-logo" viewBox="0 0 133 32">
<path d="M21.276 8.13h-8.683c-1.026-0.354-2.209-0.559-3.44-0.559-0.007 0-0.014 0-0.021 0h0.001c-0.097-0.003-0.21-0.005-0.324-0.005-2.366 0-4.532 0.852-6.21 2.266l0.014-0.012c-1.598 1.279-2.613 3.229-2.613 5.416 0 0.007 0 0.015 0 0.022v-0.001c-0 0.024-0.001 0.052-0.001 0.080 0 2.484 1.385 4.644 3.425 5.75l0.034 0.017-3.425 8.13 3.326 2.11c2.258-1.481 5.009-2.387 7.968-2.456l0.018-0c0.060-0.003 0.131-0.005 0.202-0.005 0.809 0 1.56 0.248 2.181 0.671l-0.013-0.009c0.664 0.617 1.089 1.484 1.124 2.45l0 0.006 5.708-0.692q-0.519-7.023-6.884-7.023c-2.976 0.042-5.719 1.008-7.964 2.623l0.041-0.028 2.698-4.29c0.215 0.023 0.465 0.035 0.718 0.035 0.039 0 0.079-0 0.118-0.001l-0.006 0c0.115 0.005 0.249 0.008 0.385 0.008 2.275 0 4.37-0.771 6.038-2.065l-0.022 0.017c1.541-1.146 2.528-2.962 2.528-5.008 0-0.003 0-0.006 0-0.009v0c0-0.017 0-0.038 0-0.058 0-1.145-0.363-2.205-0.98-3.071l0.011 0.016 4.048 0.277zM9.237 18.785c-0.023 0-0.050 0.001-0.077 0.001-1.048 0-2.005-0.394-2.729-1.042l0.004 0.003c-0.724-0.632-1.178-1.557-1.178-2.587 0-0.039 0.001-0.078 0.002-0.117l-0 0.006c-0.002-0.042-0.003-0.092-0.003-0.142 0-0.972 0.421-1.846 1.090-2.45l0.003-0.003c0.682-0.602 1.583-0.97 2.571-0.97 0.039 0 0.078 0.001 0.116 0.002l-0.006-0c0.027-0.001 0.059-0.001 0.091-0.001 1.033 0 1.974 0.395 2.68 1.042l-0.003-0.003c0.704 0.646 1.144 1.57 1.144 2.596 0 0.048-0.001 0.096-0.003 0.143l0-0.007c0.002 0.045 0.004 0.099 0.004 0.152 0 0.96-0.414 1.824-1.073 2.423l-0.003 0.002c-0.669 0.592-1.555 0.953-2.524 0.953-0.037 0-0.074-0.001-0.11-0.002l0.005 0zM34.041 8.649v10.136c-0.847 1.121-2.171 1.843-3.664 1.863l-0.003 0q-2.906 0-2.906-4.29v-8.822l-5.466 1.107v9.41c-0.011 0.149-0.017 0.322-0.017 0.497 0 1.84 0.667 3.524 1.772 4.824l-0.009-0.011c1.077 1.146 2.602 1.859 4.294 1.859 0.066 0 0.131-0.001 0.196-0.003l-0.009 0c0.062 0.002 0.135 0.003 0.208 0.003 2.318 0 4.397-1.029 5.803-2.654l0.008-0.010v2.177h5.258v-17.194zM54.348 1.418v6.435c-0.908-0.203-1.956-0.328-3.031-0.346l-0.013-0c-0.087-0.003-0.19-0.004-0.294-0.004-2.619 0-4.998 1.030-6.754 2.706l0.004-0.004c-1.742 1.67-2.825 4.015-2.825 6.614 0 0.107 0.002 0.214 0.005 0.321l-0-0.015c-0.005 0.108-0.008 0.234-0.008 0.361 0 2.129 0.797 4.071 2.108 5.546l-0.007-0.008c1.257 1.395 3.069 2.268 5.086 2.268 0.058 0 0.116-0.001 0.173-0.002l-0.009 0c0.055 0.002 0.12 0.002 0.186 0.002 2.266 0 4.283-1.064 5.58-2.72l0.012-0.015v2.179h5.253v-24.424zM51.165 20.895c-0.041 0.002-0.089 0.003-0.137 0.003-1.121 0-2.125-0.503-2.799-1.295l-0.004-0.005c-0.694-0.873-1.114-1.991-1.114-3.208 0-0.095 0.003-0.189 0.008-0.282l-0.001 0.013c-0.008-0.098-0.012-0.212-0.012-0.327 0-1.165 0.452-2.225 1.191-3.014l-0.002 0.002c0.738-0.698 1.737-1.127 2.836-1.127 0.049 0 0.098 0.001 0.146 0.003l-0.007-0c0.020-0 0.045-0 0.069-0 1.111 0 2.15 0.309 3.036 0.845l-0.026-0.015v6.884c-0.714 0.93-1.827 1.524-3.078 1.524-0.037 0-0.074-0.001-0.11-0.002l0.005 0zM71.369 4.255c1.571 0.013 3.067 0.316 4.443 0.859l-0.084-0.029v-4.29c-1.501-0.507-3.229-0.799-5.025-0.799-0.046 0-0.091 0-0.137 0.001l0.007-0q-7.611 0-7.611 7.507v17.231h5.466v-12.385h5.847v-4.221h-5.847v-0.825c-0.007-0.081-0.011-0.174-0.011-0.269 0-0.77 0.265-1.478 0.708-2.038l-0.005 0.007c0.521-0.472 1.216-0.762 1.978-0.762 0.095 0 0.189 0.005 0.282 0.013l-0.012-0.001zM83.408 25.427c0.093 0.003 0.202 0.005 0.312 0.005 2.62 0 5.004-1.008 6.786-2.657l-0.007 0.006c1.747-1.588 2.839-3.87 2.839-6.407 0-0.065-0.001-0.129-0.002-0.193l0 0.010c0.001-0.047 0.002-0.103 0.002-0.159 0-2.42-1.061-4.593-2.743-6.078l-0.009-0.008c-1.729-1.559-4.031-2.513-6.555-2.513-0.11 0-0.219 0.002-0.328 0.005l0.016-0c-0.093-0.003-0.202-0.005-0.312-0.005-2.62 0-5.004 1.008-6.786 2.657l0.007-0.006c-1.747 1.594-2.839 3.88-2.839 6.422 0 0.071 0.001 0.143 0.003 0.214l-0-0.011c-0.001 0.049-0.002 0.107-0.002 0.165 0 2.413 1.061 4.578 2.743 6.054l0.009 0.008c1.732 1.549 4.031 2.496 6.551 2.496 0.111 0 0.222-0.002 0.332-0.005l-0.016 0zM83.719 21.345c-0.053 0.003-0.115 0.004-0.178 0.004-1.195 0-2.266-0.537-2.983-1.382l-0.005-0.006c-0.728-0.94-1.167-2.136-1.167-3.434 0-0.108 0.003-0.216 0.009-0.322l-0.001 0.015c-0.005-0.086-0.008-0.186-0.008-0.287 0-1.194 0.407-2.293 1.089-3.166l-0.009 0.011c0.674-0.778 1.663-1.267 2.766-1.267 0.061 0 0.122 0.002 0.183 0.005l-0.009-0c0.051-0.002 0.112-0.004 0.172-0.004 1.198 0 2.27 0.539 2.987 1.387l0.005 0.006c0.729 0.947 1.168 2.149 1.168 3.454 0 0.112-0.003 0.222-0.010 0.332l0.001-0.015c0.005 0.081 0.007 0.175 0.007 0.271 0 1.187-0.406 2.278-1.087 3.144l0.008-0.011c-0.674 0.78-1.664 1.271-2.77 1.271-0.060 0-0.12-0.001-0.179-0.004l0.008 0zM103.611 25.427c0.093 0.003 0.202 0.005 0.312 0.005 2.62 0 5.004-1.008 6.786-2.657l-0.007 0.006c1.747-1.588 2.839-3.87 2.839-6.407 0-0.065-0.001-0.129-0.002-0.193l0 0.010c0.001-0.047 0.002-0.102 0.002-0.158 0-2.421-1.061-4.594-2.744-6.079l-0.009-0.008c-1.729-1.559-4.031-2.513-6.555-2.513-0.109 0-0.218 0.002-0.326 0.005l0.016-0c-0.093-0.003-0.202-0.005-0.312-0.005-2.62 0-5.004 1.008-6.786 2.657l0.007-0.006c-1.747 1.594-2.839 3.88-2.839 6.422 0 0.071 0.001 0.143 0.003 0.214l-0-0.011c-0.001 0.049-0.002 0.107-0.002 0.165 0 2.413 1.061 4.578 2.743 6.054l0.009 0.008c1.732 1.549 4.031 2.496 6.551 2.496 0.111 0 0.222-0.002 0.332-0.005l-0.016 0zM103.922 21.345c-0.053 0.003-0.115 0.004-0.178 0.004-1.195 0-2.266-0.537-2.983-1.382l-0.005-0.006c-0.728-0.94-1.167-2.136-1.167-3.434 0-0.108 0.003-0.216 0.009-0.322l-0.001 0.015c-0.005-0.082-0.007-0.179-0.007-0.276 0-1.197 0.408-2.298 1.094-3.172l-0.008 0.011c0.674-0.778 1.663-1.267 2.766-1.267 0.061 0 0.122 0.002 0.183 0.005l-0.009-0c0.053-0.003 0.115-0.004 0.178-0.004 1.195 0 2.266 0.537 2.983 1.382l0.005 0.006c0.729 0.947 1.168 2.149 1.168 3.454 0 0.112-0.003 0.222-0.010 0.332l0.001-0.015c0.004 0.078 0.007 0.17 0.007 0.263 0 1.19-0.408 2.285-1.093 3.152l0.008-0.011c-0.674 0.78-1.664 1.271-2.77 1.271-0.060 0-0.12-0.001-0.179-0.004l0.008 0zM127.135 1.418v6.435c-0.908-0.203-1.956-0.328-3.031-0.346l-0.013-0c-0.086-0.003-0.188-0.004-0.29-0.004-2.619 0-4.998 1.030-6.754 2.706l0.004-0.004c-1.742 1.67-2.825 4.015-2.825 6.614 0 0.107 0.002 0.214 0.005 0.321l-0-0.015c-0.005 0.108-0.008 0.234-0.008 0.361 0 2.129 0.797 4.071 2.108 5.546l-0.007-0.008c1.257 1.395 3.069 2.268 5.086 2.268 0.055 0 0.109-0.001 0.164-0.002l-0.008 0c0.055 0.002 0.12 0.002 0.186 0.002 2.266 0 4.283-1.064 5.58-2.72l0.012-0.015v2.179h5.258v-24.424zM123.952 20.895c-0.041 0.002-0.089 0.003-0.137 0.003-1.121 0-2.125-0.503-2.799-1.295l-0.004-0.005c-0.694-0.873-1.114-1.991-1.114-3.208 0-0.095 0.003-0.189 0.008-0.282l-0.001 0.013c-0.008-0.098-0.012-0.212-0.012-0.327 0-1.165 0.452-2.225 1.191-3.014l-0.002 0.002c0.738-0.698 1.737-1.127 2.836-1.127 0.049 0 0.098 0.001 0.146 0.003l-0.007-0c0.020-0 0.045-0 0.069-0 1.111 0 2.15 0.309 3.036 0.845l-0.026-0.015v6.884c-0.714 0.93-1.827 1.524-3.078 1.524-0.037 0-0.074-0.001-0.11-0.002l0.005 0z"></path>
</symbol>
<symbol id="dishes-bg" viewBox="0 0 50 32">
<path fill="#ffd800" style="fill: var(--color1, #ffd800)" d="M-1.481-6.938h71.211v40.068h-71.211v-40.068z"></path>
<path fill="#ffe200" style="fill: var(--color2, #ffe200)" d="M54.956 33.13c4.944-5.155 7.988-12.165 7.988-19.886 0-0.012 0-0.024-0-0.036v0.002c0-7.841-3.13-14.951-8.208-20.148h8.761c3.804 5.48 6.118 12.245 6.232 19.545l0 0.028v1.149c-0.113 7.232-2.368 13.915-6.157 19.469l0.079-0.123zM21.81 33.13c-1.512-0.945-2.825-1.98-4.015-3.141l0.005 0.005q-0.115-0.112-0.228-0.225c-2.083-2.079-3.774-4.549-4.956-7.29l-0.058-0.152c-0.631-1.443-1.147-3.129-1.466-4.884l-0.021-0.142c-0.226-1.226-0.356-2.636-0.356-4.076 0-0.005 0-0.011 0-0.016v0.001c0-0.006 0-0.014 0-0.021 0-6.41 2.58-12.217 6.758-16.439l-0.002 0.002q0.050-0.051 0.1-0.101c1.349-1.352 2.862-2.539 4.507-3.529l0.105-0.059h23.883c5.737 3.447 9.828 9.136 11.076 15.825l0.022 0.145c0.001 0.007 0.002 0.013 0.004 0.020 0 0.001 0 0.001 0 0.002 0.234 1.245 0.367 2.677 0.367 4.141 0 0.005 0 0.011 0 0.016v-0.001c-0.004 8.372-4.394 15.717-10.997 19.863l-0.098 0.057zM18.031 13.21c0 0.001 0 0.001 0 0.002 0 8.89 7.206 16.096 16.095 16.098h0c8.889 0 16.095-7.208 16.095-16.1 0-8.509-6.6-15.477-14.959-16.060q-0.403-0.028-0.812-0.036h-0.004l-0.016-0h-0.005l-0.027-0.001h-0.007l-0.013-0h-0.009l-0.019-0-0.013-0h-0.033l-0.020-0h-0.032c-0.007 0-0.014 0-0.021 0h-0.106c-8.889-0.002-16.095 7.207-16.095 16.098zM4.601 33.13c-3.815-5.587-6.091-12.488-6.091-19.92 0-7.529 2.336-14.513 6.323-20.266l-0.077 0.118h8.761c-5.075 5.179-8.208 12.28-8.208 20.112 0 0.013 0 0.025 0 0.038v-0.002c0 7.727 3.040 14.745 7.988 19.921zM34.126 24.668q-0.23 0-0.458-0.009c-1.457-0.057-2.825-0.38-4.075-0.922l0.073 0.028q-0.296-0.125-0.583-0.266-0.058-0.029-0.116-0.058c-0.018-0.009-0.035-0.018-0.053-0.027l-0.032-0.016c-1.097-0.572-2.039-1.267-2.856-2.087l-0-0c-1.684-1.683-2.846-3.889-3.224-6.352l-0.008-0.064c-0.078-0.505-0.123-1.087-0.123-1.68 0-0.002 0-0.004 0-0.007v0c0-0.002 0-0.005 0-0.007 0-6.324 5.127-11.451 11.451-11.451 0.001 0 0.002 0 0.004 0h-0q0.243 0 0.484 0.010h0.003l0.044 0.002c2.6 0.123 4.952 1.096 6.805 2.645l-0.017-0.014 0.016 0.014q0.396 0.331 0.764 0.699c0.339 0.34 0.658 0.7 0.953 1.080l0.019 0.026c0.571 0.733 1.067 1.568 1.451 2.462l0.028 0.074q0.137 0.323 0.253 0.652c0.411 1.129 0.649 2.432 0.649 3.79 0 0.006 0 0.013-0 0.019v-0.001c-0 4.692-2.82 8.726-6.857 10.499l-0.074 0.029q-0.032 0.014-0.064 0.027c-1.31 0.571-2.836 0.903-4.439 0.903-0.007 0-0.014 0-0.021-0h0.001zM26.81 13.21c0 0.002 0 0.005 0 0.007 0 4.038 3.273 7.311 7.311 7.311 0.002 0 0.004 0 0.005 0h-0c4.041 0 7.316-3.276 7.316-7.318 0-0.003 0-0.007 0-0.010 0-2.013-0.815-3.836-2.134-5.156l-0.009-0.009-0.017-0.017c-1.319-1.314-3.138-2.126-5.146-2.126-0.003 0-0.007 0-0.010 0h0.001c-4.041 0-7.316 3.276-7.316 7.318zM34.126 17.127c-2.163-0.002-3.915-1.755-3.916-3.918v-0c0-2.163 1.753-3.916 3.916-3.916s3.916 1.753 3.916 3.916v0c-0.002 2.162-1.754 3.915-3.916 3.918h-0zM32.663 13.21c0 0.808 0.655 1.463 1.463 1.463s1.463-0.655 1.463-1.463-0.655-1.463-1.463-1.463c0 0-0 0-0 0v0c-0.808 0-1.463 0.655-1.463 1.463 0 0 0 0 0 0v0z"></path>
</symbol>
<symbol id="red-bg" viewBox="0 0 114 32">
<path fill="#e31b0e" style="fill: var(--color3, #e31b0e)" d="M0.044 0.044h113.463v31.911h-113.463v-31.911z"></path>
<path fill="#d3180c" style="fill: var(--color4, #d3180c)" d="M89.968 31.956c7.877-8.21 12.728-19.376 12.728-31.676 0-0.019 0-0.038-0-0.058v0.003c0-0.060 0-0.121 0-0.181h10.812v1.096c-0.18 11.52-3.774 22.165-9.81 31.010l0.126-0.195zM37.155 31.956c-2.41-1.505-4.502-3.154-6.397-5.003l0.008 0.007q-0.183-0.178-0.363-0.358c-3.318-3.311-6.014-7.245-7.896-11.612l-0.093-0.241c-1.005-2.299-1.827-4.985-2.336-7.78l-0.034-0.226c-0.36-1.952-0.567-4.199-0.567-6.493 0-0.008 0-0.017 0-0.025v0.001c0-0.060 0-0.121 0-0.181h11.658c0 0.060-0.001 0.12-0.001 0.181 0 14.163 11.482 25.645 25.645 25.645h0c14.163 0 25.645-11.482 25.645-25.645 0-0.060 0-0.12-0.001-0.181h11.657q0 0.090 0 0.181v0c-0.007 13.336-7.002 25.036-17.521 31.639l-0.156 0.091zM9.736 31.956c-6.069-8.883-9.691-19.856-9.691-31.676 0-0.019 0-0.039 0-0.058v0.003q0-0.090 0-0.181h10.819c0 0.060 0 0.121 0 0.181-0 0.018-0 0.039-0 0.061 0 12.298 4.851 23.462 12.743 31.686l-0.015-0.016zM56.779 18.476q-0.366 0-0.729-0.014c-2.322-0.091-4.501-0.606-6.493-1.469l0.117 0.045q-0.471-0.199-0.929-0.423-0.093-0.045-0.185-0.092c-0.028-0.014-0.057-0.029-0.085-0.043l-0.051-0.026c-1.748-0.911-3.248-2.019-4.551-3.324l-0-0c-2.683-2.681-4.535-6.194-5.137-10.118l-0.013-0.102c-0.125-0.804-0.196-1.732-0.196-2.676 0-0.003 0-0.007 0-0.010v0.001c0-0.060 0-0.121 0.001-0.181h6.594c-0.001 0.060-0.001 0.12-0.001 0.181 0 6.438 5.219 11.657 11.657 11.657s11.657-5.219 11.657-11.657v0q0-0.091-0.001-0.181h6.594q0.001 0.090 0.001 0.181v0c-0.001 7.475-4.494 13.9-10.926 16.724l-0.117 0.046q-0.051 0.022-0.102 0.043c-2.087 0.909-4.518 1.438-7.073 1.438-0.011 0-0.023 0-0.034-0h0.002zM56.779 6.465c-3.446-0.002-6.238-2.795-6.24-6.24v-0q0-0.091 0.003-0.181h3.913q-0.007 0.089-0.007 0.181c0 1.288 1.044 2.331 2.331 2.331s2.331-1.044 2.331-2.331v0q0-0.091-0.007-0.181h3.913q0.003 0.090 0.003 0.181v0c-0.004 3.445-2.795 6.237-6.24 6.24h-0z"></path>
</symbol>
<symbol id="yellow-bg" viewBox="0 0 57 32">
<path fill="#ffd800" style="fill: var(--color1, #ffd800)" d="M0.022 0.022h56.81v31.956h-56.81v-31.956z"></path>
<path fill="#ffe200" style="fill: var(--color2, #ffe200)" d="M45.046 31.978c3.944-4.12 6.373-9.72 6.373-15.887 0-6.256-2.498-11.928-6.552-16.073l0.004 0.004h6.989c3.034 4.37 4.881 9.766 4.972 15.587l0 0.023v0.917c-0.090 5.768-1.889 11.098-4.912 15.527l0.063-0.098zM18.603 31.978c-1.206-0.754-2.254-1.579-3.203-2.505l0.004 0.004q-0.091-0.089-0.182-0.179c-1.661-1.658-3.011-3.628-3.954-5.814l-0.046-0.121c-0.503-1.151-0.915-2.496-1.169-3.895l-0.017-0.113c-0.18-0.977-0.284-2.102-0.284-3.251 0-0.004 0-0.008 0-0.012v0.001c0-0.005 0-0.010 0-0.016 0-5.113 2.058-9.744 5.392-13.112l-0.002 0.002q0.040-0.040 0.080-0.080c1.076-1.078 2.284-2.025 3.596-2.815l0.084-0.047h19.054c4.577 2.748 7.84 7.286 8.836 12.621l0.018 0.116c0.001 0.005 0.002 0.011 0.003 0.016 0 0.001 0 0.001 0 0.001 0.186 0.993 0.293 2.135 0.293 3.303 0 0.004 0 0.009 0 0.013v-0.001c-0.004 6.677-3.506 12.536-8.773 15.842l-0.078 0.046zM15.589 16.091c0 7.091 5.749 12.84 12.84 12.84v0c7.091 0 12.84-5.749 12.84-12.84 0-6.787-5.265-12.344-11.934-12.809q-0.322-0.022-0.648-0.029h-0.003l-0.012-0h-0.004l-0.022-0h-0.218c-7.091-0.002-12.84 5.747-12.84 12.838zM4.875 31.978c-3.043-4.455-4.859-9.959-4.859-15.887 0-6.005 1.864-11.575 5.044-16.162l-0.062 0.094h6.989c-4.049 4.141-6.548 9.813-6.548 16.068 0 6.167 2.428 11.767 6.381 15.896l-0.008-0.008zM28.429 25.229q-0.183 0-0.365-0.007c-1.163-0.046-2.253-0.303-3.251-0.735l0.059 0.023q-0.236-0.1-0.465-0.212-0.046-0.023-0.093-0.046c-0.014-0.007-0.028-0.014-0.042-0.022l-0.025-0.013c-0.875-0.456-1.626-1.011-2.278-1.664l-0-0c-1.343-1.342-2.271-3.101-2.572-5.066l-0.006-0.051c-0.062-0.403-0.098-0.867-0.098-1.34 0-0.002 0-0.003 0-0.005v0c0-0.001 0-0.002 0-0.003 0-5.045 4.090-9.135 9.135-9.135 0.001 0 0.002 0 0.004 0h-0q0.194 0 0.386 0.008h0.003l0.035 0.002c2.074 0.098 3.95 0.874 5.429 2.11l-0.014-0.012 0.001 0.001 0.013 0.011q0.316 0.264 0.61 0.557c0.271 0.271 0.525 0.558 0.761 0.861l0.016 0.021c0.455 0.584 0.851 1.25 1.158 1.963l0.023 0.059q0.109 0.258 0.202 0.52c0.328 0.9 0.518 1.939 0.518 3.023 0 0.005 0 0.010 0 0.015v-0.001c-0.001 3.743-2.25 6.96-5.471 8.374l-0.059 0.023q-0.025 0.011-0.051 0.022c-1.045 0.455-2.262 0.72-3.542 0.72-0.006 0-0.011 0-0.017 0h0.001zM22.593 16.091c0 3.223 2.613 5.836 5.836 5.836s5.836-2.613 5.836-5.836c0-1.608-0.65-3.064-1.702-4.12l-0.007-0.007-0.014-0.014c-1.055-1.048-2.508-1.696-4.113-1.696-3.223 0-5.837 2.613-5.837 5.836v0zM28.429 19.215c-1.725-0.001-3.124-1.399-3.125-3.124v-0c0-1.726 1.399-3.125 3.125-3.125s3.125 1.399 3.125 3.125v0c-0.002 1.725-1.4 3.123-3.124 3.125h-0zM27.262 16.091c0 0.645 0.523 1.167 1.167 1.167s1.167-0.523 1.167-1.167c0-0.645-0.523-1.167-1.167-1.167v0c-0.645 0-1.167 0.523-1.167 1.167v0z"></path>
</symbol>
</defs>
</svg>
