<!-- Generated by IcoMoon.io -->
<svg version="1.1" xmlns="http://www.w3.org/2000/svg" width="57" height="32" viewBox="0 0 57 32">
<title>yellow-bg</title>
<path fill="#ffd800" d="M0.022 0.022h56.81v31.956h-56.81v-31.956z"></path>
<path fill="#ffe200" d="M45.046 31.978c3.944-4.12 6.373-9.72 6.373-15.887 0-6.256-2.498-11.928-6.552-16.073l0.004 0.004h6.989c3.034 4.37 4.881 9.766 4.972 15.587l0 0.023v0.917c-0.090 5.768-1.889 11.098-4.912 15.527l0.063-0.098zM18.603 31.978c-1.206-0.754-2.254-1.579-3.203-2.505l0.004 0.004q-0.091-0.089-0.182-0.179c-1.661-1.658-3.011-3.628-3.954-5.814l-0.046-0.121c-0.503-1.151-0.915-2.496-1.169-3.895l-0.017-0.113c-0.18-0.977-0.284-2.102-0.284-3.251 0-0.004 0-0.008 0-0.012v0.001c0-0.005 0-0.010 0-0.016 0-5.113 2.058-9.744 5.392-13.112l-0.002 0.002q0.040-0.040 0.080-0.080c1.076-1.078 2.284-2.025 3.596-2.815l0.084-0.047h19.054c4.577 2.748 7.84 7.286 8.836 12.621l0.018 0.116c0.001 0.005 0.002 0.011 0.003 0.016 0 0.001 0 0.001 0 0.001 0.186 0.993 0.293 2.135 0.293 3.303 0 0.004 0 0.009 0 0.013v-0.001c-0.004 6.677-3.506 12.536-8.773 15.842l-0.078 0.046zM15.589 16.091c0 7.091 5.749 12.84 12.84 12.84v0c7.091 0 12.84-5.749 12.84-12.84 0-6.787-5.265-12.344-11.934-12.809q-0.322-0.022-0.648-0.029h-0.003l-0.012-0h-0.004l-0.022-0h-0.218c-7.091-0.002-12.84 5.747-12.84 12.838zM4.875 31.978c-3.043-4.455-4.859-9.959-4.859-15.887 0-6.005 1.864-11.575 5.044-16.162l-0.062 0.094h6.989c-4.049 4.141-6.548 9.813-6.548 16.068 0 6.167 2.428 11.767 6.381 15.896l-0.008-0.008zM28.429 25.229q-0.183 0-0.365-0.007c-1.163-0.046-2.253-0.303-3.251-0.735l0.059 0.023q-0.236-0.1-0.465-0.212-0.046-0.023-0.093-0.046c-0.014-0.007-0.028-0.014-0.042-0.022l-0.025-0.013c-0.875-0.456-1.626-1.011-2.278-1.664l-0-0c-1.343-1.342-2.271-3.101-2.572-5.066l-0.006-0.051c-0.062-0.403-0.098-0.867-0.098-1.34 0-0.002 0-0.003 0-0.005v0c0-0.001 0-0.002 0-0.003 0-5.045 4.090-9.135 9.135-9.135 0.001 0 0.002 0 0.004 0h-0q0.194 0 0.386 0.008h0.003l0.035 0.002c2.074 0.098 3.95 0.874 5.429 2.11l-0.014-0.012 0.001 0.001 0.013 0.011q0.316 0.264 0.61 0.557c0.271 0.271 0.525 0.558 0.761 0.861l0.016 0.021c0.455 0.584 0.851 1.25 1.158 1.963l0.023 0.059q0.109 0.258 0.202 0.52c0.328 0.9 0.518 1.939 0.518 3.023 0 0.005 0 0.010 0 0.015v-0.001c-0.001 3.743-2.25 6.96-5.471 8.374l-0.059 0.023q-0.025 0.011-0.051 0.022c-1.045 0.455-2.262 0.72-3.542 0.72-0.006 0-0.011 0-0.017 0h0.001zM22.593 16.091c0 3.223 2.613 5.836 5.836 5.836s5.836-2.613 5.836-5.836c0-1.608-0.65-3.064-1.702-4.12l-0.007-0.007-0.014-0.014c-1.055-1.048-2.508-1.696-4.113-1.696-3.223 0-5.837 2.613-5.837 5.836v0zM28.429 19.215c-1.725-0.001-3.124-1.399-3.125-3.124v-0c0-1.726 1.399-3.125 3.125-3.125s3.125 1.399 3.125 3.125v0c-0.002 1.725-1.4 3.123-3.124 3.125h-0zM27.262 16.091c0 0.645 0.523 1.167 1.167 1.167s1.167-0.523 1.167-1.167c0-0.645-0.523-1.167-1.167-1.167v0c-0.645 0-1.167 0.523-1.167 1.167v0z"></path>
</svg>
