<svg xmlns="http://www.w3.org/2000/svg" xmlns:xlink="http://www.w3.org/1999/xlink" width="1280" height="821" viewBox="0 0 1280 821"><defs><clipPath id="a"><rect width="1280" height="821" fill="#ffd800"/></clipPath></defs><g clip-path="url(#a)"><g transform="translate(-509 -178)"><rect width="1827" height="1028" fill="#d3180c"/><path d="M1447.964,0a737.537,737.537,0,0,1,204.944,511.087c0,201.161-80.305,383.583-210.576,516.913h224.762A911.865,911.865,0,0,0,1827,525.83V496.344A911.9,911.9,0,0,0,1671.061,0Zm-850.4,0A599.692,599.692,0,0,0,494.679,80.465q-2.94,2.864-5.845,5.77A598.854,598.854,0,0,0,360.2,277.163a596.68,596.68,0,0,0-38.157,128.954,604.118,604.118,0,0,0-9.122,104.97h0A599.67,599.67,0,0,0,486.259,933.349q1.281,1.3,2.574,2.591A599.688,599.688,0,0,0,607.178,1028h612.759a601.072,601.072,0,0,0,284.742-409.725c.032-.172.062-.339.093-.511,0-.015.005-.028.008-.044a603.773,603.773,0,0,0,9.419-106.632h0A601.653,601.653,0,0,0,1229.55,0ZM500.617,511.087A413.007,413.007,0,0,1,913.556,98.022c228.057,0,412.94,184.94,412.94,413.066,0,218.321-169.336,397.091-383.792,412.051q-10.351.723-20.838.932l-.093,0-.4.008h-.123l-.694.013-.168,0-.344.005-.232,0-.482.006-.321.005-.276,0-.325,0-.256,0-.51.005-.242,0-.355,0h-.229c-.18,0-.366,0-.547,0h-.157l-.442,0h-.191l-.572,0h-1.354C685.5,924.153,500.617,739.213,500.617,511.087ZM156.053,0a913.862,913.862,0,0,0,3.967,1028H384.784A737.463,737.463,0,0,1,174.206,511.087c0-198.244,78-378.293,204.946-511.087Zm757.5,217.123q-5.888,0-11.741.229A291.185,291.185,0,0,0,799.143,240.28q-7.592,3.207-14.954,6.813-1.493.731-2.977,1.478c-.457.231-.911.46-1.365.693l-.814.418a292.954,292.954,0,0,0-73.279,53.538h0a293.932,293.932,0,0,0-82.918,164.607,296.261,296.261,0,0,0-3.152,43.26h0A293.786,293.786,0,0,0,913.556,805.052h0q6.224,0,12.409-.256l.089,0,1.127-.049a293.448,293.448,0,0,0,174.137-67.493l.021-.017.416-.348q10.155-8.485,19.606-17.93a296.789,296.789,0,0,0,24.957-28.366,291.925,291.925,0,0,0,37.964-65.054q3.511-8.294,6.495-16.74a292.168,292.168,0,0,0,16.655-97.708h0a294.08,294.08,0,0,0-177.823-270.11q-.817-.351-1.638-.7a291.665,291.665,0,0,0-114.414-23.157Zm-187.7,293.966a187.567,187.567,0,0,1,187.7-187.758c103.673,0,187.7,84.053,187.7,187.758a187.187,187.187,0,0,1-54.746,132.54l-.227.227-.446.445a187.086,187.086,0,0,1-132.281,54.544C809.883,698.845,725.857,614.793,725.857,511.088Zm187.7-100.514A100.551,100.551,0,0,0,813.076,511.087h0a100.482,100.482,0,1,0,200.964,0h0A100.6,100.6,0,0,0,913.558,410.574ZM876.018,511.087a37.54,37.54,0,1,1,37.539,37.552A37.547,37.547,0,0,1,876.018,511.087Z" transform="translate(1827 1028) rotate(180)" fill="#e31b0e" stroke="rgba(0,0,0,0)" stroke-miterlimit="10" stroke-width="1"/></g></g></svg>