<!-- Generated by IcoMoon.io -->
<svg version="1.1" xmlns="http://www.w3.org/2000/svg" width="114" height="32" viewBox="0 0 114 32">
<title>red-bg</title>
<path fill="#e31b0e" d="M0.044 0.044h113.463v31.911h-113.463v-31.911z"></path>
<path fill="#d3180c" d="M89.968 31.956c7.877-8.21 12.728-19.376 12.728-31.676 0-0.019 0-0.038-0-0.058v0.003c0-0.060 0-0.121 0-0.181h10.812v1.096c-0.18 11.52-3.774 22.165-9.81 31.010l0.126-0.195zM37.155 31.956c-2.41-1.505-4.502-3.154-6.397-5.003l0.008 0.007q-0.183-0.178-0.363-0.358c-3.318-3.311-6.014-7.245-7.896-11.612l-0.093-0.241c-1.005-2.299-1.827-4.985-2.336-7.78l-0.034-0.226c-0.36-1.952-0.567-4.199-0.567-6.493 0-0.008 0-0.017 0-0.025v0.001c0-0.060 0-0.121 0-0.181h11.658c0 0.060-0.001 0.12-0.001 0.181 0 14.163 11.482 25.645 25.645 25.645h0c14.163 0 25.645-11.482 25.645-25.645 0-0.060 0-0.12-0.001-0.181h11.657q0 0.090 0 0.181v0c-0.007 13.336-7.002 25.036-17.521 31.639l-0.156 0.091zM9.736 31.956c-6.069-8.883-9.691-19.856-9.691-31.676 0-0.019 0-0.039 0-0.058v0.003q0-0.090 0-0.181h10.819c0 0.060 0 0.121 0 0.181-0 0.018-0 0.039-0 0.061 0 12.298 4.851 23.462 12.743 31.686l-0.015-0.016zM56.779 18.476q-0.366 0-0.729-0.014c-2.322-0.091-4.501-0.606-6.493-1.469l0.117 0.045q-0.471-0.199-0.929-0.423-0.093-0.045-0.185-0.092c-0.028-0.014-0.057-0.029-0.085-0.043l-0.051-0.026c-1.748-0.911-3.248-2.019-4.551-3.324l-0-0c-2.683-2.681-4.535-6.194-5.137-10.118l-0.013-0.102c-0.125-0.804-0.196-1.732-0.196-2.676 0-0.003 0-0.007 0-0.010v0.001c0-0.060 0-0.121 0.001-0.181h6.594c-0.001 0.060-0.001 0.12-0.001 0.181 0 6.438 5.219 11.657 11.657 11.657s11.657-5.219 11.657-11.657v0q0-0.091-0.001-0.181h6.594q0.001 0.090 0.001 0.181v0c-0.001 7.475-4.494 13.9-10.926 16.724l-0.117 0.046q-0.051 0.022-0.102 0.043c-2.087 0.909-4.518 1.438-7.073 1.438-0.011 0-0.023 0-0.034-0h0.002zM56.779 6.465c-3.446-0.002-6.238-2.795-6.24-6.24v-0q0-0.091 0.003-0.181h3.913q-0.007 0.089-0.007 0.181c0 1.288 1.044 2.331 2.331 2.331s2.331-1.044 2.331-2.331v0q0-0.091-0.007-0.181h3.913q0.003 0.090 0.003 0.181v0c-0.004 3.445-2.795 6.237-6.24 6.24h-0z"></path>
</svg>
